<svg id="svg" version="1.1" xmlns="http://www.w3.org/2000/svg" xmlns:xlink="http://www.w3.org/1999/xlink" width="400" height="405.6666666666667" viewBox="0, 0, 400,405.6666666666667"><g id="svgg"><path id="path0" d="M254.534 39.675 C 251.803 41.104,248.392 42.774,246.954 43.387 L 244.339 44.500 244.336 104.917 L 244.333 165.333 252.167 165.333 L 260.000 165.333 260.000 101.353 C 260.000 66.164,259.887 37.306,259.750 37.225 C 259.612 37.144,257.265 38.247,254.534 39.675 M137.167 38.919 C 130.529 42.268,119.250 46.528,114.000 47.670 L 112.167 48.069 112.255 66.706 L 112.344 85.343 90.914 85.255 L 69.483 85.167 70.056 88.333 C 71.905 98.558,72.479 115.271,71.298 124.500 L 70.829 128.167 91.581 128.078 L 112.333 127.990 112.333 146.662 L 112.333 165.333 133.833 165.333 L 155.333 165.333 155.333 146.667 L 155.333 128.000 177.000 128.000 L 198.667 128.000 198.667 106.667 L 198.667 85.333 176.995 85.333 L 155.323 85.333 155.412 65.167 C 155.460 54.075,155.386 45.000,155.246 45.000 C 154.847 45.000,145.084 40.199,142.500 38.731 L 140.167 37.406 137.167 38.919 M274.667 104.964 L 274.667 165.333 282.500 165.333 L 290.333 165.333 290.333 107.239 L 290.333 49.145 286.583 48.250 C 283.294 47.465,276.927 45.550,275.250 44.842 C 274.696 44.608,274.667 47.598,274.667 104.964 M77.921 49.569 C 78.335 49.649,78.935 49.646,79.254 49.562 C 79.573 49.479,79.233 49.414,78.500 49.417 C 77.767 49.421,77.506 49.489,77.921 49.569 M226.333 50.712 C 224.408 51.241,220.958 52.022,218.667 52.448 L 214.500 53.223 214.416 109.278 L 214.331 165.333 222.166 165.333 L 230.000 165.333 230.000 107.500 C 230.000 75.692,229.963 49.686,229.917 49.709 C 229.871 49.732,228.258 50.184,226.333 50.712 M304.500 108.308 L 304.500 165.667 312.417 165.667 L 320.333 165.667 320.333 108.705 L 320.333 51.743 314.583 51.530 C 311.421 51.413,307.858 51.234,306.667 51.133 L 304.500 50.949 304.500 108.308 M343.095 111.500 C 343.098 112.417,343.163 112.752,343.239 112.245 C 343.316 111.739,343.314 110.989,343.235 110.579 C 343.156 110.169,343.093 110.583,343.095 111.500 M97.942 167.583 C 108.269 167.632,125.069 167.632,135.276 167.583 C 145.482 167.534,137.033 167.494,116.500 167.494 C 95.967 167.494,87.616 167.534,97.942 167.583 M163.462 177.667 C 163.462 179.958,163.515 180.896,163.580 179.750 C 163.645 178.604,163.645 176.729,163.580 175.583 C 163.515 174.438,163.462 175.375,163.462 177.667 M242.750 181.581 C 244.171 181.644,246.496 181.644,247.917 181.581 C 249.338 181.519,248.175 181.467,245.333 181.467 C 242.492 181.467,241.329 181.519,242.750 181.581 M155.128 192.000 C 155.128 194.292,155.182 195.229,155.247 194.083 C 155.312 192.938,155.312 191.063,155.247 189.917 C 155.182 188.771,155.128 189.708,155.128 192.000 M247.083 195.905 C 247.588 195.982,248.412 195.982,248.917 195.905 C 249.421 195.829,249.008 195.767,248.000 195.767 C 246.992 195.767,246.579 195.829,247.083 195.905 M231.469 206.667 C 231.469 209.692,231.520 210.929,231.581 209.417 C 231.643 207.904,231.643 205.429,231.581 203.917 C 231.520 202.404,231.469 203.642,231.469 206.667 M246.069 212.914 C 247.298 212.977,249.398 212.978,250.735 212.914 C 252.073 212.851,251.067 212.799,248.500 212.798 C 245.933 212.798,244.839 212.850,246.069 212.914 M89.749 272.750 L 89.833 324.500 93.167 326.771 C 103.770 333.993,128.239 345.000,133.693 345.000 C 133.879 345.000,134.000 320.615,134.000 283.000 L 134.000 221.000 111.832 221.000 L 89.665 221.000 89.749 272.750 M178.000 235.000 C 178.000 242.700,178.058 249.000,178.129 249.000 C 178.200 249.000,179.513 248.334,181.046 247.519 C 192.632 241.366,207.550 241.249,219.249 247.218 C 220.811 248.015,222.143 248.667,222.211 248.667 C 222.278 248.667,222.333 242.442,222.333 234.833 L 222.333 221.000 200.167 221.000 L 178.000 221.000 178.000 235.000 M265.667 283.202 C 265.667 332.824,265.751 345.373,266.083 345.250 C 266.313 345.165,268.150 344.608,270.167 344.013 C 282.946 340.240,296.033 334.013,306.583 326.685 L 310.000 324.312 310.000 272.656 L 310.000 221.000 287.833 221.000 L 265.667 221.000 265.667 283.202 M33.462 233.000 C 33.462 235.292,33.515 236.229,33.580 235.083 C 33.645 233.938,33.645 232.063,33.580 230.917 C 33.515 229.771,33.462 230.708,33.462 233.000 M366.077 230.333 C 366.077 230.975,366.146 231.237,366.230 230.917 C 366.314 230.596,366.314 230.071,366.230 229.750 C 366.146 229.429,366.077 229.692,366.077 230.333 M47.095 238.833 C 47.098 239.750,47.163 240.085,47.239 239.579 C 47.316 239.072,47.314 238.322,47.235 237.912 C 47.156 237.502,47.093 237.917,47.095 238.833 M204.250 261.569 C 204.662 261.648,205.338 261.648,205.750 261.569 C 206.162 261.489,205.825 261.424,205.000 261.424 C 204.175 261.424,203.838 261.489,204.250 261.569 M171.744 274.333 C 171.744 274.975,171.813 275.237,171.896 274.917 C 171.980 274.596,171.980 274.071,171.896 273.750 C 171.813 273.429,171.744 273.692,171.744 274.333 M178.000 336.167 L 178.000 351.667 200.167 351.667 L 222.333 351.667 222.333 336.333 C 222.333 327.900,222.278 321.000,222.211 321.000 C 222.143 321.000,220.811 321.652,219.249 322.448 C 207.540 328.423,192.641 328.306,181.046 322.147 C 179.513 321.333,178.200 320.667,178.129 320.667 C 178.058 320.667,178.000 327.642,178.000 336.167 M216.101 353.915 C 217.898 353.975,220.748 353.975,222.434 353.915 C 224.120 353.854,222.650 353.805,219.167 353.806 C 215.683 353.806,214.304 353.855,216.101 353.915 " stroke="none" fill="#ddd" fill-rule="evenodd"></path><path id="path1" d="M137.667 9.964 C 112.108 27.562,72.398 32.174,43.846 20.859 C 42.082 20.160,40.736 19.797,40.559 19.974 C 40.395 20.138,36.467 25.420,31.830 31.710 L 23.400 43.147 25.529 46.157 C 60.728 95.930,55.629 146.117,10.187 197.167 C 8.229 199.367,6.539 201.369,6.432 201.616 C 6.308 201.901,9.666 205.499,15.609 211.450 L 24.980 220.833 25.140 231.333 C 26.449 317.590,73.382 365.823,165.463 375.540 L 170.759 376.098 185.289 387.889 C 193.280 394.374,199.996 399.612,200.213 399.528 C 200.499 399.419,224.028 380.316,229.000 376.157 C 229.289 375.916,231.473 375.574,234.167 375.348 C 277.875 371.685,316.437 354.565,340.285 328.235 C 363.303 302.821,374.302 271.511,374.845 229.852 L 374.967 220.537 384.210 211.290 L 393.453 202.043 391.476 199.825 C 344.531 147.138,338.613 95.920,373.781 46.667 L 376.280 43.167 375.537 42.167 C 375.129 41.617,371.368 36.397,367.180 30.567 C 361.314 22.402,359.443 20.018,359.033 20.186 C 329.884 32.166,290.277 28.104,263.035 10.341 C 258.717 7.526,259.594 7.533,255.536 10.283 C 234.014 24.868,209.074 31.834,189.500 28.725 C 173.255 26.145,161.104 21.291,146.282 11.461 C 140.138 7.385,141.155 7.562,137.667 9.964 M145.500 21.051 C 179.774 43.861,221.280 43.609,255.972 20.379 L 259.443 18.054 261.805 19.645 C 285.725 35.764,323.500 40.272,354.547 30.713 L 356.595 30.083 361.297 36.509 C 363.884 40.043,366.000 43.034,366.000 43.155 C 366.000 43.276,364.740 45.278,363.200 47.604 C 331.974 94.775,337.806 151.837,378.673 198.987 L 381.375 202.105 379.576 203.969 C 378.587 204.994,375.032 208.683,371.676 212.165 L 365.575 218.497 365.792 221.999 C 367.921 256.321,361.990 283.766,347.419 307.030 C 325.415 342.160,282.889 364.461,231.606 367.765 L 225.379 368.167 213.613 378.167 C 207.141 383.667,201.459 388.494,200.986 388.893 L 200.126 389.620 187.411 379.013 L 174.696 368.405 171.931 368.185 C 110.807 363.311,69.860 340.709,48.403 300.000 C 37.158 278.665,31.648 248.733,33.856 220.966 L 34.031 218.766 27.298 211.633 C 23.595 207.710,20.039 203.944,19.395 203.264 L 18.225 202.027 19.454 200.597 C 63.270 149.615,69.000 93.241,35.266 45.031 C 34.491 43.924,34.114 43.089,34.289 42.865 C 35.693 41.062,44.125 30.151,44.155 30.098 C 44.176 30.060,45.912 30.609,48.013 31.318 C 75.362 40.541,115.009 35.393,137.774 19.662 C 139.273 18.626,140.650 17.865,140.833 17.972 C 141.017 18.079,143.117 19.464,145.500 21.051 M255.333 36.863 C 218.171 57.448,175.481 57.040,141.585 35.777 L 140.336 34.993 136.723 36.805 C 113.120 48.642,87.939 52.055,56.276 47.708 C 53.924 47.385,52.000 47.157,52.000 47.201 C 52.000 47.245,52.766 48.605,53.703 50.224 C 73.148 83.833,75.112 122.158,59.453 162.466 C 58.464 165.014,57.706 167.151,57.770 167.215 C 57.993 167.438,341.667 167.775,341.667 167.552 C 341.667 167.429,341.001 165.768,340.187 163.862 C 323.744 125.367,325.750 83.530,345.660 49.731 L 346.701 47.963 344.767 48.161 C 308.471 51.879,281.402 47.886,261.500 35.875 C 260.400 35.212,259.425 34.684,259.333 34.704 C 259.242 34.723,257.442 35.695,255.333 36.863 M269.667 42.492 C 287.545 50.533,309.613 53.122,339.750 50.715 C 341.354 50.587,342.667 50.522,342.667 50.571 C 342.667 50.620,341.681 52.623,340.477 55.022 C 323.969 87.900,322.573 125.140,336.527 160.397 C 337.521 162.907,338.333 165.144,338.333 165.368 C 338.333 165.689,332.578 165.729,311.583 165.555 C 296.871 165.433,265.971 165.334,242.917 165.334 L 201.000 165.333 201.000 109.894 L 201.000 54.456 206.417 54.038 C 222.646 52.789,238.458 48.076,254.469 39.717 L 259.437 37.123 262.969 39.095 C 264.911 40.180,267.925 41.709,269.667 42.492 M147.667 41.473 C 163.082 49.325,182.036 54.325,196.417 54.332 L 198.667 54.333 198.667 109.833 L 198.667 165.333 129.631 165.333 C 64.016 165.333,60.607 165.304,60.830 164.750 C 72.284 136.250,74.937 108.119,68.656 81.747 C 66.613 73.173,62.994 63.536,58.549 54.837 C 57.239 52.272,56.127 50.091,56.078 49.989 C 56.030 49.887,57.455 49.988,59.245 50.213 C 88.461 53.889,113.038 50.534,135.167 39.849 L 140.167 37.435 142.500 38.732 C 143.783 39.446,146.108 40.679,147.667 41.473 M192.369 173.361 C 176.678 176.442,174.491 204.762,189.397 211.837 C 197.215 215.548,206.043 213.131,210.025 206.190 C 211.353 203.873,211.403 203.965,207.700 201.868 C 203.797 199.659,204.092 199.685,202.823 201.432 C 198.939 206.780,190.464 204.628,188.564 197.811 C 185.165 185.619,194.409 176.377,202.422 183.956 L 204.171 185.609 207.715 183.715 L 211.260 181.820 210.663 180.656 C 207.976 175.419,199.368 171.986,192.369 173.361 M139.583 173.582 L 135.667 173.688 135.667 193.011 L 135.667 212.333 139.667 212.333 L 143.667 212.333 143.667 204.333 L 143.667 196.333 149.333 196.333 L 155.000 196.333 155.000 192.167 L 155.000 188.000 149.333 188.000 L 143.667 188.000 143.667 184.833 L 143.667 181.667 153.500 181.667 L 163.333 181.667 163.333 177.500 L 163.333 173.333 153.417 173.405 C 147.962 173.444,141.737 173.524,139.583 173.582 M231.334 184.400 C 231.334 190.505,231.434 199.458,231.555 204.296 L 231.776 213.092 242.971 212.864 L 254.167 212.636 256.202 211.654 C 263.746 208.015,265.703 199.013,260.287 192.860 L 258.915 191.301 259.586 190.567 C 264.131 185.604,262.106 177.475,255.574 174.458 L 253.500 173.500 242.417 173.400 L 231.333 173.300 231.334 184.400 M251.317 181.917 C 252.935 182.738,253.482 184.199,252.731 185.697 C 251.847 187.463,251.109 187.656,245.250 187.662 L 240.000 187.667 240.000 184.722 C 240.000 183.103,240.100 181.678,240.222 181.556 C 240.761 181.017,250.144 181.323,251.317 181.917 M252.230 196.433 C 255.056 197.930,255.108 202.141,252.320 203.788 C 251.566 204.234,250.390 204.333,245.893 204.333 L 240.389 204.333 240.267 200.250 C 240.199 198.004,240.206 196.037,240.282 195.879 C 240.547 195.324,251.055 195.812,252.230 196.433 M48.013 222.416 C 40.548 289.152,76.827 336.365,146.167 350.153 C 153.196 351.551,156.115 352.017,165.333 353.213 C 174.861 354.449,226.786 354.078,238.380 352.692 C 301.527 345.139,341.586 312.124,350.650 260.163 C 352.420 250.020,353.164 230.375,352.122 221.333 L 351.833 218.833 200.133 218.750 L 48.432 218.666 48.013 222.416 M134.000 283.000 C 134.000 320.615,133.879 345.000,133.693 345.000 C 128.239 345.000,103.770 333.993,93.167 326.771 L 89.833 324.500 89.749 272.750 L 89.665 221.000 111.832 221.000 L 134.000 221.000 134.000 283.000 M222.333 234.833 C 222.333 242.442,222.278 248.667,222.211 248.667 C 222.143 248.667,220.811 248.015,219.249 247.218 C 207.550 241.249,192.632 241.366,181.046 247.519 C 179.513 248.334,178.200 249.000,178.129 249.000 C 178.058 249.000,178.000 242.700,178.000 235.000 L 178.000 221.000 200.167 221.000 L 222.333 221.000 222.333 234.833 M310.000 272.656 L 310.000 324.312 306.583 326.685 C 296.033 334.013,282.946 340.240,270.167 344.013 C 268.150 344.608,266.313 345.165,266.083 345.250 C 265.751 345.373,265.667 332.824,265.667 283.202 L 265.667 221.000 287.833 221.000 L 310.000 221.000 310.000 272.656 M196.667 245.152 C 196.667 245.235,196.288 245.861,195.826 246.543 C 193.192 250.423,193.666 255.297,197.203 260.715 C 197.766 261.578,197.757 261.623,196.761 262.881 C 190.982 270.185,191.008 276.664,196.840 282.496 L 199.260 284.916 198.298 286.676 C 193.210 295.981,186.371 297.356,179.459 290.465 C 173.098 284.124,172.150 274.378,176.226 257.228 C 177.578 251.537,177.606 251.503,182.876 248.982 C 187.339 246.848,196.667 244.257,196.667 245.152 M207.205 245.516 C 225.057 248.629,238.478 263.205,240.185 281.333 C 240.314 282.708,240.344 283.758,240.251 283.667 C 240.159 283.575,238.911 281.925,237.479 280.000 C 226.942 265.837,212.472 257.843,201.202 259.960 C 198.913 260.389,198.970 260.431,197.258 257.022 C 195.264 253.051,195.634 249.292,198.320 246.233 C 199.606 244.768,201.870 244.586,207.205 245.516 M174.217 257.895 C 170.507 273.604,171.368 283.610,177.035 290.613 C 178.956 292.986,178.993 292.803,175.937 295.925 C 173.614 298.298,170.927 299.575,167.267 300.045 C 163.553 300.523,163.558 300.526,162.563 297.441 C 157.887 282.947,161.351 267.911,171.885 256.984 C 175.340 253.400,175.284 253.378,174.217 257.895 M212.000 262.561 C 221.293 265.239,232.066 274.291,238.779 285.062 L 240.344 287.573 240.006 289.956 C 239.465 293.772,238.800 296.317,237.344 300.141 L 236.973 301.115 236.108 299.807 C 232.701 294.654,228.062 292.104,222.652 292.413 L 219.738 292.579 218.845 290.305 C 215.399 281.521,209.620 278.774,201.888 282.244 L 199.905 283.134 197.843 280.958 C 194.198 277.110,193.392 273.874,195.005 269.563 C 195.707 267.687,198.510 263.155,199.452 262.373 C 200.904 261.168,207.510 261.266,212.000 262.561 M211.224 283.361 C 213.928 284.670,217.287 289.672,217.856 293.235 C 218.529 297.447,210.561 305.831,202.034 309.884 C 194.006 313.699,177.294 317.300,175.046 315.699 C 172.082 313.589,165.411 305.143,164.769 302.689 C 164.607 302.071,164.738 301.999,166.044 301.995 C 170.956 301.978,175.608 299.568,179.012 295.274 L 180.248 293.714 181.524 294.581 C 186.333 297.849,191.273 297.330,195.718 293.091 C 197.567 291.327,201.000 286.382,201.000 285.482 C 201.000 283.370,208.171 281.883,211.224 283.361 M228.504 295.286 C 231.136 296.518,233.824 299.156,234.995 301.657 L 235.798 303.371 235.149 304.592 C 225.109 323.484,198.176 330.540,179.847 319.081 C 177.935 317.885,177.618 318.052,183.500 317.159 C 201.291 314.458,212.951 307.728,218.996 296.670 C 220.344 294.203,220.827 293.970,224.232 294.147 C 225.676 294.222,226.961 294.564,228.504 295.286 M181.046 322.147 C 192.641 328.306,207.540 328.423,219.249 322.448 C 220.811 321.652,222.143 321.000,222.211 321.000 C 222.278 321.000,222.333 327.900,222.333 336.333 L 222.333 351.667 200.167 351.667 L 178.000 351.667 178.000 336.167 C 178.000 327.642,178.058 320.667,178.129 320.667 C 178.200 320.667,179.513 321.333,181.046 322.147 " stroke="none" fill="#bdbdbd" fill-rule="evenodd"></path><path id="path2" d="M155.333 65.128 L 155.333 85.000 177.000 85.000 L 198.667 85.000 198.667 69.719 L 198.667 54.437 193.750 54.215 C 183.008 53.728,171.245 51.243,160.833 47.260 C 158.450 46.349,156.237 45.525,155.917 45.429 C 155.366 45.265,155.333 46.358,155.333 65.128 M106.519 49.349 C 93.741 51.936,77.070 52.350,61.167 50.477 C 58.967 50.218,56.933 50.004,56.647 50.003 C 56.267 50.001,56.864 51.462,58.858 55.417 C 63.197 64.020,66.626 73.211,68.682 81.750 L 69.465 85.000 90.899 85.000 L 112.333 85.000 112.333 66.667 C 112.333 49.414,112.299 48.336,111.750 48.371 C 111.429 48.392,109.075 48.832,106.519 49.349 M70.860 128.417 C 70.794 128.646,70.408 130.856,70.002 133.328 C 68.639 141.625,65.240 153.619,61.569 163.083 L 60.697 165.333 86.515 165.333 L 112.333 165.333 112.333 146.667 L 112.333 128.000 91.656 128.000 C 75.400 128.000,70.954 128.089,70.860 128.417 M155.333 146.667 L 155.333 165.333 177.000 165.333 L 198.667 165.333 198.667 146.667 L 198.667 128.000 177.000 128.000 L 155.333 128.000 155.333 146.667 " stroke="none" fill="none" fill-rule="evenodd"></path><path id="path3" d="M136.667 20.391 C 113.651 35.743,73.135 40.558,47.054 31.039 L 44.387 30.066 43.748 30.783 C 43.396 31.177,41.259 33.900,38.999 36.833 C 36.739 39.767,34.694 42.398,34.455 42.682 C 34.087 43.117,34.203 43.453,35.202 44.849 C 68.287 91.070,62.984 150.625,21.548 198.167 C 19.791 200.183,18.386 201.936,18.426 202.061 C 18.467 202.187,21.932 205.937,26.126 210.395 L 33.752 218.500 33.815 233.000 C 33.884 248.693,34.210 252.930,36.167 263.500 C 47.627 325.416,94.683 362.126,170.109 367.993 L 174.717 368.351 187.419 378.981 L 200.122 389.610 203.108 387.055 C 204.750 385.650,210.443 380.806,215.759 376.290 L 225.424 368.081 229.795 367.852 C 286.148 364.909,332.136 338.623,352.699 297.602 C 363.158 276.739,368.141 247.764,365.756 221.687 L 365.468 218.540 370.967 212.853 C 373.992 209.726,377.562 206.037,378.902 204.657 L 381.337 202.148 378.628 198.991 C 337.550 151.117,331.866 94.432,363.410 47.229 C 364.857 45.063,365.995 43.170,365.937 43.023 C 365.880 42.875,363.744 39.901,361.191 36.413 L 356.548 30.072 355.191 30.556 C 327.395 40.471,286.663 35.901,262.627 20.171 L 259.421 18.073 257.294 19.559 C 222.817 43.656,180.156 44.123,144.957 20.791 C 139.971 17.486,140.950 17.534,136.667 20.391 M261.835 36.001 C 281.020 47.743,308.968 51.829,344.790 48.127 L 346.747 47.925 345.517 50.046 C 325.695 84.223,323.835 127.844,340.623 164.796 C 341.197 166.059,341.667 167.232,341.667 167.402 C 341.667 167.760,58.187 167.631,57.829 167.273 C 57.704 167.148,58.499 164.748,59.596 161.940 C 74.898 122.772,73.097 84.611,54.387 51.547 C 53.053 49.189,52.008 47.218,52.064 47.167 C 52.121 47.116,53.517 47.276,55.167 47.522 C 85.853 52.107,111.984 48.814,135.261 37.428 C 138.793 35.700,140.479 35.036,140.761 35.260 C 141.816 36.103,150.310 40.489,154.333 42.269 C 186.828 56.646,218.840 55.396,252.258 38.445 C 255.241 36.932,258.012 35.463,258.415 35.180 C 259.398 34.492,259.350 34.480,261.835 36.001 M274.333 104.933 L 274.500 165.500 274.584 105.184 C 274.631 72.011,274.556 44.756,274.418 44.618 C 274.280 44.480,274.242 71.622,274.333 104.933 M338.417 50.896 C 338.737 50.980,339.262 50.980,339.583 50.896 C 339.904 50.813,339.642 50.744,339.000 50.744 C 338.358 50.744,338.096 50.813,338.417 50.896 M333.250 51.235 C 333.662 51.315,334.337 51.315,334.750 51.235 C 335.162 51.156,334.825 51.091,334.000 51.091 C 333.175 51.091,332.837 51.156,333.250 51.235 M304.416 108.227 L 304.333 165.287 303.583 165.431 L 302.833 165.576 303.594 165.621 C 304.729 165.689,304.677 168.728,304.585 108.000 L 304.498 51.167 304.416 108.227 M325.243 51.574 C 325.834 51.648,326.884 51.649,327.576 51.577 C 328.267 51.504,327.783 51.444,326.500 51.443 C 325.217 51.441,324.651 51.500,325.243 51.574 M214.163 109.333 C 214.163 140.225,214.202 152.862,214.250 137.417 C 214.298 121.971,214.298 96.696,214.250 81.250 C 214.202 65.804,214.163 78.442,214.163 109.333 M205.587 54.236 C 206.002 54.315,206.602 54.312,206.921 54.229 C 207.239 54.146,206.900 54.080,206.167 54.084 C 205.433 54.088,205.173 54.156,205.587 54.236 M327.084 102.833 C 327.088 103.567,327.156 103.827,327.236 103.413 C 327.315 102.998,327.312 102.398,327.229 102.079 C 327.146 101.761,327.080 102.100,327.084 102.833 M326.787 111.333 C 326.787 113.075,326.843 113.787,326.912 112.917 C 326.980 112.046,326.980 110.621,326.912 109.750 C 326.843 108.879,326.787 109.592,326.787 111.333 M327.084 119.833 C 327.088 120.567,327.156 120.827,327.236 120.413 C 327.315 119.998,327.312 119.398,327.229 119.079 C 327.146 118.761,327.080 119.100,327.084 119.833 M324.750 165.583 C 327.271 165.639,331.396 165.639,333.917 165.583 C 336.438 165.526,334.375 165.480,329.333 165.480 C 324.292 165.480,322.229 165.526,324.750 165.583 M200.456 173.503 C 204.606 174.583,207.705 176.572,210.000 179.626 C 211.710 181.901,211.893 181.567,207.727 183.757 L 204.121 185.652 202.811 184.286 C 199.091 180.409,193.735 180.427,190.210 184.329 C 187.467 187.366,187.181 196.193,189.697 200.161 C 193.054 205.454,200.085 205.882,203.179 200.980 L 203.989 199.698 207.494 201.710 C 211.434 203.970,211.368 203.848,209.969 206.286 C 202.637 219.073,183.814 214.718,179.957 199.344 C 176.024 183.664,186.888 169.969,200.456 173.503 M163.594 177.583 L 163.687 181.667 153.677 181.667 L 143.667 181.667 143.667 184.833 L 143.667 188.000 149.510 188.000 L 155.354 188.000 155.260 192.083 L 155.167 196.167 149.417 196.258 L 143.667 196.349 143.667 204.341 L 143.667 212.333 139.667 212.333 L 135.667 212.333 135.667 193.011 L 135.667 173.689 139.417 173.580 C 141.479 173.520,147.742 173.478,153.333 173.486 L 163.500 173.500 163.594 177.583 M255.696 174.541 C 262.058 177.555,264.088 184.950,259.965 190.091 L 258.957 191.348 260.357 192.924 C 265.858 199.116,263.856 207.730,255.947 211.896 L 254.167 212.833 242.961 212.937 L 231.755 213.040 231.549 212.270 C 231.435 211.846,231.340 202.905,231.338 192.400 L 231.333 173.300 242.417 173.400 L 253.500 173.500 255.696 174.541 M240.070 184.583 L 240.167 187.500 245.158 187.593 C 251.620 187.713,253.000 187.152,253.000 184.410 C 253.000 182.022,252.043 181.667,245.605 181.667 L 239.974 181.667 240.070 184.583 M240.333 199.955 L 240.333 204.333 246.039 204.333 L 251.745 204.333 253.039 203.039 C 254.500 201.578,254.775 199.820,253.828 197.989 C 252.984 196.357,252.002 196.089,245.914 195.822 L 240.333 195.578 240.333 199.955 M352.130 221.000 C 353.276 229.383,352.402 250.819,350.492 261.167 C 340.449 315.584,296.618 348.726,228.167 353.661 C 220.307 354.228,174.406 354.097,168.297 353.491 C 84.347 345.160,39.813 296.604,48.014 222.343 L 48.420 218.666 200.127 218.750 L 351.833 218.833 352.130 221.000 M193.500 245.536 C 188.533 246.422,179.460 250.156,177.885 251.962 C 177.627 252.258,176.876 254.750,176.215 257.500 C 171.598 276.720,173.753 287.986,183.063 293.309 C 188.613 296.482,194.409 294.023,198.202 286.885 L 199.237 284.936 196.869 282.552 C 191.025 276.668,190.875 271.153,196.348 263.351 L 197.708 261.412 196.540 259.585 C 193.651 255.069,193.303 251.096,195.454 247.183 C 196.114 245.982,196.544 245.013,196.410 245.030 C 196.276 245.046,194.967 245.274,193.500 245.536 M198.362 246.237 C 195.245 250.019,195.364 255.226,198.663 259.420 C 199.277 260.201,199.409 260.228,201.073 259.919 C 212.977 257.711,230.355 267.949,239.294 282.434 C 240.376 284.188,240.480 283.848,240.008 280.098 C 237.787 262.449,224.299 248.322,206.991 245.515 C 201.419 244.611,199.575 244.766,198.362 246.237 M171.920 256.952 C 161.489 267.869,157.913 283.331,162.562 297.400 C 163.595 300.525,163.559 300.503,166.945 300.047 C 171.774 299.397,174.703 297.742,177.685 293.976 L 178.729 292.659 177.642 291.421 C 171.159 284.037,170.099 270.122,174.862 254.917 C 175.214 253.793,174.401 254.355,171.920 256.952 M200.434 261.900 C 198.444 262.286,194.639 269.212,194.403 272.876 C 194.174 276.444,198.521 283.716,200.393 282.897 C 206.253 280.334,209.129 280.074,212.285 281.822 C 215.208 283.441,217.937 287.172,219.322 291.444 C 219.694 292.591,219.824 292.699,220.601 292.504 C 225.968 291.157,232.636 294.203,235.939 299.510 L 236.920 301.086 237.643 299.153 C 241.150 289.780,240.974 287.817,236.036 281.179 C 225.606 267.163,211.811 259.692,200.434 261.900 M203.833 283.506 C 202.733 283.960,201.798 284.331,201.756 284.332 C 201.713 284.333,201.280 285.121,200.793 286.083 C 195.739 296.076,188.509 299.180,181.280 294.461 L 180.393 293.882 177.895 296.537 C 174.614 300.024,170.586 301.988,166.680 302.005 C 164.526 302.014,164.445 302.338,165.951 304.917 C 168.191 308.752,171.735 312.971,174.740 315.380 L 175.980 316.373 179.907 315.832 C 198.671 313.248,210.302 307.350,216.518 297.267 C 218.243 294.470,218.281 294.096,217.153 291.100 C 214.416 283.826,209.651 281.110,203.833 283.506 M221.117 294.344 C 220.291 294.599,219.838 295.113,218.997 296.751 C 213.584 307.295,201.443 314.336,183.833 317.144 C 182.000 317.436,179.991 317.759,179.368 317.862 L 178.237 318.048 179.368 318.737 C 197.863 329.989,221.609 324.830,233.532 306.968 C 235.990 303.286,235.972 303.376,234.691 301.144 C 231.839 296.171,225.490 292.991,221.117 294.344 " stroke="none" fill="none" fill-rule="evenodd"></path><path id="path4" d="M260.000 101.489 L 260.000 165.333 267.168 165.333 L 274.335 165.333 274.251 104.969 L 274.167 44.606 272.333 43.849 C 269.499 42.680,265.083 40.527,262.417 39.015 L 260.000 37.644 260.000 101.489 M241.000 46.080 C 239.625 46.636,236.625 47.725,234.333 48.502 L 230.167 49.913 230.082 107.623 L 229.998 165.333 237.166 165.333 L 244.333 165.333 244.333 105.167 C 244.333 57.237,244.249 45.007,243.917 45.035 C 243.688 45.054,242.375 45.524,241.000 46.080 M290.333 107.292 L 290.333 165.333 297.333 165.333 L 304.333 165.333 304.333 108.167 L 304.333 51.000 302.917 50.995 C 301.575 50.990,293.744 49.954,291.417 49.474 L 290.333 49.250 290.333 107.292 M337.333 51.009 C 335.775 51.140,331.313 51.364,327.417 51.506 L 320.333 51.765 320.333 108.549 L 320.333 165.333 329.338 165.333 L 338.342 165.333 337.805 164.083 C 322.470 128.437,323.274 89.102,340.023 55.537 C 341.294 52.991,342.333 50.853,342.333 50.787 C 342.333 50.639,341.029 50.697,337.333 51.009 M210.333 53.849 C 208.408 54.081,205.521 54.285,203.917 54.302 L 201.000 54.333 201.000 109.833 L 201.000 165.333 207.500 165.333 L 214.000 165.333 214.000 109.333 C 214.000 78.533,213.963 53.354,213.917 53.380 C 213.871 53.405,212.258 53.616,210.333 53.849 M80.250 85.250 C 86.163 85.301,95.838 85.301,101.750 85.250 C 107.663 85.199,102.825 85.157,91.000 85.157 C 79.175 85.157,74.338 85.199,80.250 85.250 M166.083 85.250 C 172.088 85.301,181.912 85.301,187.917 85.250 C 193.921 85.199,189.008 85.157,177.000 85.157 C 164.992 85.157,160.079 85.199,166.083 85.250 " stroke="none" fill="none" fill-rule="evenodd"></path></g></svg>